<?xml version="1.0" standalone="no"?>
<!DOCTYPE svg PUBLIC "-//W3C//DTD SVG 20010904//EN"
 "http://www.w3.org/TR/2001/REC-SVG-20010904/DTD/svg10.dtd">
<svg version="1.0" xmlns="http://www.w3.org/2000/svg"
 width="369.000000pt" height="34.000000pt" viewBox="0 0 369.000000 34.000000"
 preserveAspectRatio="xMidYMid meet">
<metadata>
Created by potrace 1.15, written by Peter Selinger 2001-2017
</metadata>
<g transform="translate(0.000000,34.000000) scale(0.100000,-0.100000)"
fill="#000000" stroke="none">
<path d="M164 243 c-43 -3 -53 -8 -58 -26 -3 -12 -1 -26 4 -31 5 -5 82 -11
172 -14 90 -2 165 -8 168 -12 11 -16 1212 -32 2160 -28 975 3 985 3 985 23 0
48 -24 50 -565 53 -300 2 -507 7 -510 13 -4 5 -399 11 -1006 14 -549 3 -1066
7 -1149 8 -82 2 -173 1 -201 0z"/>
</g>
</svg>
