<?xml version="1.0" standalone="no"?>
<!DOCTYPE svg PUBLIC "-//W3C//DTD SVG 20010904//EN"
 "http://www.w3.org/TR/2001/REC-SVG-20010904/DTD/svg10.dtd">
<svg version="1.0" xmlns="http://www.w3.org/2000/svg"
 width="364.000000pt" height="37.000000pt" viewBox="0 0 364.000000 37.000000"
 preserveAspectRatio="xMidYMid meet">
<metadata>
Created by potrace 1.15, written by Peter Selinger 2001-2017
</metadata>
<g transform="translate(0.000000,37.000000) scale(0.100000,-0.100000)"
fill="#000000" stroke="none">
<path d="M176 233 c-48 -8 -76 -32 -76 -64 l0 -29 283 1 c155 1 343 4 417 8
207 10 2114 -7 2118 -19 5 -13 212 -14 212 0 0 6 55 10 143 11 213 2 281 10
285 33 2 10 0 22 -5 26 -16 15 -993 33 -1213 22 -190 -9 -1580 -1 -1985 11
-82 3 -163 3 -179 0z"/>
</g>
</svg>
