<?xml version="1.0" standalone="no"?>
<!DOCTYPE svg PUBLIC "-//W3C//DTD SVG 20010904//EN"
 "http://www.w3.org/TR/2001/REC-SVG-20010904/DTD/svg10.dtd">
<svg version="1.0" xmlns="http://www.w3.org/2000/svg"
 width="490.000000pt" height="28.000000pt" viewBox="0 0 490.000000 28.000000"
 preserveAspectRatio="xMidYMid meet">
<metadata>
Created by potrace 1.15, written by Peter Selinger 2001-2017
</metadata>
<g transform="translate(0.000000,28.000000) scale(0.100000,-0.100000)"
fill="#000000" stroke="none">
<path d="M90 202 c-6 -2 -10 -10 -10 -18 0 -8 -4 -14 -10 -14 -5 0 -10 -9 -10
-20 0 -11 5 -20 10 -20 6 0 10 -8 10 -17 1 -10 9 -28 19 -40 19 -22 25 -23
200 -23 114 0 181 4 181 10 0 6 42 10 105 10 63 0 105 -4 105 -10 0 -6 87 -10
240 -10 153 0 240 4 240 10 0 16 587 13 592 -2 6 -17 1095 -19 1106 -2 11 18
198 25 687 24 339 0 507 4 640 16 102 9 242 14 323 12 104 -2 142 0 142 8 0 8
-31 15 -85 19 -47 4 -85 12 -85 17 0 7 31 8 86 3 62 -5 84 -4 80 4 -4 6 -31
11 -61 11 -29 0 -55 4 -57 10 -2 6 -315 10 -851 12 -734 3 -849 1 -857 -12
-13 -21 -927 -21 -940 1 -8 12 -91 14 -547 16 -296 2 -697 4 -891 5 -193 2
-357 2 -362 0z"/>
</g>
</svg>
