<svg width="167" height="170" viewBox="0 0 167 170" fill="none" xmlns="http://www.w3.org/2000/svg">
<path d="M145.928 2.39761C116.137 6.84208 77.9902 16.2439 54.3754 25.3037L40.7514 30.432L40.2065 80.5178L39.8431 130.775L33.3037 130.091C24.221 129.065 11.687 134.022 5.32915 141.373C-0.483739 148.04 -1.392 152.655 1.87775 159.322C8.59889 172.997 38.5716 172.313 49.834 158.125C53.2854 153.681 53.4671 150.262 54.3754 105.475L55.2836 57.4407L63.458 55.0475C85.2563 48.7227 125.765 42.5688 145.747 42.5688H154.284V79.3212V116.074H145.747C115.774 116.244 102.15 144.45 127.581 153.51C138.481 157.441 151.741 154.364 160.642 145.817L167 139.834V69.9194C167 4.27796 166.818 -0.16651 163.912 0.00443168C162.095 0.175373 154.103 1.20102 145.928 2.39761ZM154.284 22.0559C154.284 25.8166 154.103 28.8935 153.921 28.8935C153.558 29.0644 143.022 30.432 130.306 32.3123C117.59 34.0217 95.7922 38.2953 81.8049 41.5432C67.8177 44.962 55.8286 47.697 55.2836 47.697C54.557 47.697 54.3754 45.6458 54.7387 43.2526C55.2836 39.3209 57.1001 38.1243 69.8158 33.6799C92.5224 25.8166 133.576 16.5857 151.196 15.3891C153.558 15.2182 154.284 16.5857 154.284 22.0559Z" fill="url(#paint0_linear)"/>
<defs>
<linearGradient id="paint0_linear" x1="83.5" y1="169.184" x2="83.5" y2="-2.52104e-06" gradientUnits="userSpaceOnUse">
<stop stop-color="#FF4229"/>
<stop offset="0.9997" stop-color="#FF8236" stop-opacity="0.405419"/>
<stop offset="0.9998" stop-opacity="0"/>
<stop offset="0.9999" stop-color="#FFA63D" stop-opacity="0.0694447"/>
</linearGradient>
</defs>
</svg>
